<?xml version="1.0" encoding="utf-8"?>
<!-- Generator: Adobe Illustrator 16.0.0, SVG Export Plug-In . SVG Version: 6.00 Build 0)  -->
<!DOCTYPE svg PUBLIC "-//W3C//DTD SVG 1.1//EN" "http://www.w3.org/Graphics/SVG/1.1/DTD/svg11.dtd">
<svg version="1.1" id="Capa_1" xmlns="http://www.w3.org/2000/svg" xmlns:xlink="http://www.w3.org/1999/xlink" x="0px" y="0px"
	 width="85.666px" height="79.668px" viewBox="0 0 85.666 79.668" enable-background="new 0 0 85.666 79.668" xml:space="preserve">
<path d="M76.917,28.438C67.038,22.003,57.056,15.73,47.248,9.195c-2.694-1.794-4.771-1.823-7.306,0.104
	c-2.516,1.91-5.295,3.465-8.135,5.291c-0.319-1.763-0.535-2.967-0.725-3.997c-2.611,0-4.894,0-7.407,0
	c0,1.515-0.165,2.816,0.03,4.066c0.58,3.787-0.715,6.311-4.26,8.055c-3.002,1.477-5.752,3.5-8.522,5.408
	c-1.996,1.375-5.561,2.321-3.725,5.563c0.656,1.152,3.97,0.8,6.613,1.223c0,11.63,0,24.24,0,36.955c3.27,0,6.15,0,9.452,0
	c0-8.967,0-17.571,0-26.199c6.982,0,13.534,0,20.649,0c0,8.947,0,17.66,0,26.232c10.098,0,19.632,0,29.489,0
	c0-12.81,0-25.34,0-36.941c2.828-0.402,5.85,0.022,6.631-1.104C82.108,30.861,78.856,29.704,76.917,28.438z"/>
</svg>
