<?xml version="1.0" encoding="utf-8"?>
<!-- Generator: Adobe Illustrator 16.0.0, SVG Export Plug-In . SVG Version: 6.00 Build 0)  -->
<!DOCTYPE svg PUBLIC "-//W3C//DTD SVG 1.1//EN" "http://www.w3.org/Graphics/SVG/1.1/DTD/svg11.dtd">
<svg version="1.1" id="Capa_1" xmlns="http://www.w3.org/2000/svg" xmlns:xlink="http://www.w3.org/1999/xlink" x="0px" y="0px"
	 width="85.666px" height="79.668px" viewBox="0 0 85.666 79.668" enable-background="new 0 0 85.666 79.668" xml:space="preserve">
<g>
	<path d="M42.367,7.017c13.524,0.331,22.45,12.7,18.655,26.162c-2.719,9.646-7.446,18.338-13.537,26.288
		c-0.258,0.333-0.562,0.633-0.85,0.941c-3.911,4.189-5.723,4.322-9.377-0.117c-7.274-8.834-12.575-18.787-14.966-30.022
		C19.732,18.233,29.86,6.71,42.367,7.017z M30.874,25.965c0.032,6.041,5.1,11.087,11.122,11.07
		c5.985-0.018,11.081-5.119,11.116-11.127c0.039-6.214-5-11.158-11.314-11.101C35.673,14.858,30.844,19.794,30.874,25.965z"/>
	<path d="M21.663,58.576c1.684,1.685,2.779,3.572,4.394,4.277c10.49,4.576,21.141,4.487,31.633,0.045
		c1.676-0.711,2.795-2.729,4.387-4.362c0.018,0.01,0.663,0.353,1.266,0.758c4.083,2.748,4.219,6.229-0.13,8.595
		c-3.183,1.729-6.796,2.932-10.364,3.639c-9.244,1.828-18.49,1.515-27.533-1.385c-1.69-0.543-3.356-1.307-4.861-2.248
		c-4.027-2.525-4.045-5.713-0.154-8.49C20.894,58.979,21.553,58.643,21.663,58.576z"/>
</g>
</svg>
