<?xml version="1.0" encoding="utf-8"?>
<!-- Generator: Adobe Illustrator 16.0.0, SVG Export Plug-In . SVG Version: 6.00 Build 0)  -->
<!DOCTYPE svg PUBLIC "-//W3C//DTD SVG 1.1//EN" "http://www.w3.org/Graphics/SVG/1.1/DTD/svg11.dtd">
<svg version="1.1" id="Capa_1" xmlns="http://www.w3.org/2000/svg" xmlns:xlink="http://www.w3.org/1999/xlink" x="0px" y="0px"
	 width="85.666px" height="79.668px" viewBox="0 0 85.666 79.668" enable-background="new 0 0 85.666 79.668" xml:space="preserve">
<g>
	<path fill-rule="evenodd" clip-rule="evenodd" d="M66.995,70.893c-17.614,0-34.697,0-51.752,0
		c-1.542-9.451,1.594-16.769,8.544-20.152c4.403-2.142,5.519-2.001,9.149,1.17c5.083,4.437,12.625,4.007,17.296-1.256
		c1.323-1.489,2.447-1.638,4.157-1.229c7.586,1.81,12.47,7.79,12.6,15.591C67.023,66.903,66.995,68.791,66.995,70.893z"/>
	<path fill-rule="evenodd" clip-rule="evenodd" d="M23.589,29.671c8.703-0.794,17.123-2.077,24.417-6.418
		c3.269,1.947,6.378,3.746,9.414,5.665c0.534,0.334,1.04,1.153,1.069,1.773c0.484,10.272-7.619,18.485-18.036,18.357
		C30.535,48.924,22.889,40.283,23.589,29.671z"/>
	<path fill-rule="evenodd" clip-rule="evenodd" d="M58.733,27.525c-2.999-2.02-5.779-3.629-8.224-5.646
		c-1.444-1.188-2.319-1.188-3.894-0.305c-7.253,4.057-15.191,5.466-23.355,5.791c-1.641-5.81,0.531-11.599,5.668-15.457
		c6.582-4.941,15.796-5.262,22.96-0.802C57.524,14.617,60.123,20.436,58.733,27.525z"/>
</g>
</svg>
